<?xml version="1.0" encoding="utf-8"?>
<!-- Generator: Adobe Illustrator 15.0.0, SVG Export Plug-In . SVG Version: 6.00 Build 0)  -->
<!DOCTYPE svg PUBLIC "-//W3C//DTD SVG 1.1//EN" "http://www.w3.org/Graphics/SVG/1.1/DTD/svg11.dtd">
<svg version="1.1" id="Layer_1" xmlns="http://www.w3.org/2000/svg" xmlns:xlink="http://www.w3.org/1999/xlink" x="0px" y="0px"
	 width="640px" height="640.01px" viewBox="0 0 640 640.01" enable-background="new 0 0 640 640.01" xml:space="preserve">
<g>
	<g>
		<path fill="#0084FF" d="M460.357,389.146c0-10.458-2.103-19.628-6.31-27.512c-4.205-7.881-10.327-14.172-18.359-18.873
			c-10.536-5.834-27.021-8.753-49.454-8.753h-42.519v172.008h17.166V349.583h24.215c17.584,0,30.771,2.085,39.564,6.253
			c5.834,2.805,10.325,7.049,13.471,12.734c3.145,5.683,4.718,12.466,4.718,20.348c0,18.95-8.298,30.887-24.897,35.812
			c-7.883,2.198-21.07,3.297-39.562,3.297l57.98,77.989h21.374l-48.204-64.232c16.521-1.742,29.122-7.104,37.801-16.086
			C456.02,416.715,460.357,404.532,460.357,389.146z M573.647,437.122c-2.995-6.441-7.183-11.709-12.562-15.803
			c-3.716-2.652-7.826-4.963-12.335-6.936c-4.511-1.97-11.084-4.242-19.726-6.82c-7.884-2.35-13.51-4.245-16.881-5.686
			c-3.375-1.438-6.235-3.145-8.584-5.113c-2.502-2.275-4.474-5.192-5.912-8.755c-1.441-3.562-2.16-7.313-2.16-11.257
			c0-8.714,2.804-15.895,8.412-21.542c5.609-5.646,12.733-8.471,21.374-8.471c8.714,0,15.859,2.806,21.431,8.412
			c5.569,5.61,8.657,13.075,9.266,22.397h17.962c-0.304-13.944-4.889-25.199-13.757-33.764s-20.35-12.849-34.447-12.849
			c-13.87,0-25.295,4.341-34.276,13.019c-8.98,8.679-13.471,19.763-13.471,33.253c0,5.988,1.059,11.691,3.183,17.11
			c2.12,5.419,5.115,9.91,8.98,13.471c3.412,3.262,7.106,5.855,11.084,7.789c3.979,1.931,10.973,4.452,20.977,7.56
			c12.353,3.637,21.296,7.353,26.83,11.141c7.73,5.534,11.595,13.757,11.595,24.671c0,9.931-3.202,18.114-9.606,24.555
			c-6.405,6.444-14.533,9.665-24.385,9.665c-5.383,0-10.479-1.062-15.291-3.184c-4.813-2.12-8.774-5.076-11.881-8.868
			c-2.576-3.03-4.53-6.31-5.854-9.833c-1.327-3.525-2.257-8.015-2.786-13.473h-18.417c0.833,15.462,6.139,27.873,15.915,37.232
			c9.777,9.361,22.397,14.041,37.857,14.041c14.932,0,27.323-4.85,37.177-14.552c9.851-9.702,14.78-21.865,14.78-36.494
			C578.139,450.538,576.641,443.564,573.647,437.122z"/>
	</g>
</g>
<path fill-rule="evenodd" clip-rule="evenodd" fill="#0084FF" d="M406.634,254.551c3.492,0.935,5.564,4.524,4.628,8.016
	c-0.938,3.492-4.525,5.564-8.017,4.629c-3.492-0.937-5.564-4.526-4.63-8.018C399.551,255.686,403.14,253.614,406.634,254.551z
	 M309.677,242.519c-3.695-0.99-5.888-4.789-4.898-8.483c0.99-3.696,4.789-5.889,8.484-4.899c3.695,0.99,5.888,4.789,4.898,8.485
	C317.171,241.316,313.373,243.509,309.677,242.519z M622.51,313.237c-1.998,1.998-4.571,3.073-7.183,3.226
	c-0.135,0.007-0.188,0.046-0.249,0.08H360.854l-4.498-1.205l5.653-21.101l43.166,11.567c7.703,2.063,15.618-2.505,17.68-10.206
	l0.479-1.779l12.793,3.428c9.241,2.475,18.74-3.009,21.218-12.25l7.544-28.157l-6.76-1.812l-6.64,24.771
	c-1.991,7.429-9.624,11.837-17.052,9.848l-9.318-2.496l10.241-38.223l-148.213-39.711l-10.241,38.219l-3.145-0.841
	c-7.428-1.991-11.836-9.625-9.846-17.055l6.637-24.77l-6.759-1.812l-7.544,28.155c-2.477,9.243,3.008,18.741,12.249,21.218
	l6.62,1.774l-0.476,1.778c-2.063,7.701,2.506,15.618,10.208,17.681l41.551,11.132l-5.655,21.101l-42.226-11.315
	c-0.226-0.061-0.452-0.096-0.678-0.146c2.258-8.271-0.092-18.217-9.983-23.927c-12.103-6.987-74.53-42.384-74.53-42.384
	l-19.761,34.227l85.428,49.322l-1.332,4.968H26.39c-0.026-0.032-0.053-0.063-0.118-0.063c-2.892,0.046-5.798-1.035-8.004-3.242
	c-3.706-3.705-4.211-9.374-1.566-13.643l287.929-287.93h-0.214c2.511-2.512,5.482-4.271,8.636-5.324
	c0.149-0.05,0.295-0.109,0.446-0.155c0.447-0.139,0.9-0.25,1.354-0.359c0.217-0.052,0.431-0.113,0.649-0.159
	c0.42-0.089,0.844-0.154,1.268-0.217c0.257-0.039,0.513-0.082,0.771-0.111c0.4-0.046,0.801-0.073,1.203-0.097
	c0.286-0.018,0.571-0.035,0.857-0.041c0.382-0.009,0.764-0.002,1.146,0.009c0.308,0.009,0.614,0.022,0.92,0.044
	c0.365,0.026,0.729,0.062,1.093,0.105c0.322,0.04,0.646,0.087,0.969,0.14c0.346,0.058,0.691,0.121,1.036,0.195
	c0.335,0.072,0.669,0.157,1.002,0.245c0.329,0.087,0.653,0.174,0.979,0.276c0.344,0.108,0.685,0.233,1.025,0.359
	c0.307,0.113,0.612,0.224,0.913,0.351c0.354,0.149,0.701,0.317,1.047,0.485c0.281,0.137,0.562,0.265,0.84,0.414
	c0.362,0.195,0.717,0.416,1.071,0.634c0.247,0.151,0.499,0.292,0.742,0.456c0.39,0.262,0.767,0.551,1.143,0.84
	c0.195,0.149,0.394,0.283,0.585,0.439c0.56,0.459,1.104,0.947,1.626,1.47c0.617,0.616,1.178,0.834,1.703,0.773L622.254,297.25
	c0.085,0.11,0.128,0.201,0.256,0.327C626.832,301.901,626.832,308.913,622.51,313.237z M218.473,175.565
	c-0.235-0.136-0.471-0.273-0.707-0.408c-2.944,5.371-5.889,10.744-8.834,16.116c-14.678,4.115-11.233,0.362-20.498-2.878
	c-4.684-16.883,2.346-15.197,6.144-26.156c0.136-0.236,0.271-0.472,0.408-0.706c-1.886-1.089-3.772-2.179-5.657-3.267
	c-1.86,0.497-3.719,0.996-5.578,1.494c-2.626,2.097-5.253,4.196-7.878,6.295c-4.902,5.227-8.647,14.365-6.184,23.776
	c0.972,3.71,1.769,8.636,3.955,10.298c0.284,5.188-8.496,16.349-11.134,20.918c-9.118,15.792-18.239,31.59-27.356,47.382
	c-0.504,1.429-0.101,2.559-0.777,3.795c2.488,10.009,5.662,9.294,11.695,12.41c11.834-3.139,12.567-10.333,16.792-17.651
	c10.343-17.914,20.689-35.835,31.031-53.749c15.21-2.61,24.947-5.822,29.401-17.442c1.442-3.76,0.496-8.686,2.031-12.502
	C224.039,177.95,222.062,176.628,218.473,175.565z M467.462,222.749c-3.29-1.845-4.833-3.288-9.937-4.562
	c7.732-29.575-5.334-74.703-26.807-84.584c-4.887,12.332-12.041,31.929-20.384,40.208c-4.782-1.18-6.698-2.206-8.988-4.319
	c2.136-8.21,13.793-38.026,17.782-41.883c5.028-18.603-21.378-20.199-39.238-24.172c-3.091,1.565-6.186,3.128-9.276,4.693
	c-1.912,7.731-5.4,37.331-3.791,42.434c-1.561,6.579-2.898,8.651-5.994,11.588c-6.042-1.691-5.719-3.1-8.505-6.213
	c1.722-7.658,5.188-33.854,3.066-39.591c0.161-0.631,0.323-1.263,0.484-1.895c-25.388,0.035-56.732,30.288-64.383,62.258
	c-2.842-0.728-5.684-1.455-8.526-2.182c-2.299,1.095-4.598,2.189-6.897,3.282c-1.444,2.963-2.815,6.769-3.856,11.127
	c1.978,3.203,2.261,6.217,5.882,8.57c4.687,4.901,36.059,10.238,45.231,12.583c31.576,8.081,63.162,16.163,94.738,24.243
	c9.546,2.443,35.562,11.794,42.871,9.961c2.382-1.409,4.763-2.819,7.141-4.229C470.599,230.808,469.502,228.505,467.462,222.749z
	 M141.299,275.752c-0.299-1.116-0.597-2.232-0.896-3.347c0.63-1.364,1.261-2.729,1.891-4.093c1.86-0.499,3.719-0.997,5.578-1.496
	c0.943,0.544,1.886,1.089,2.829,1.634c1.296,4.526,0.818,5.589-0.138,8.405C145.128,278.457,144.461,277.559,141.299,275.752z
	 M236.408,532.353c0.151,0.002,0.23-0.032,0.288-0.074h168.157c0.039,0.037,0.081,0.072,0.218,0.072
	c2.834,0,5.669,1.081,7.834,3.244c4.223,4.227,4.29,10.999,0.259,15.343l-76.185,76.185c-0.473,0.113-0.903,0.296-1.24,0.634
	c-7.682,7.683-19.593,8.523-28.224,2.562l-79.132-79.132c-4.259-4.329-4.245-11.288,0.058-15.591
	C230.637,533.397,233.528,532.317,236.408,532.353z M184.256,259.499l11.964-20.724c0,0,60.927,34.784,68.256,39.016
	c7.328,4.23,7.821,12.301,4.73,17.655c-2.884,4.997-5.673,9.824-5.673,9.824L184.256,259.499z"/>
<path fill="#666666" d="M122.822,506.016V334.008H90.875v172.008l0,0l0,0l0,0l0,0H122.822z"/>
<path fill="#666666" d="M259.757,473.615c-6.556,3.108-13.966,4.662-22.225,4.662c-10.46,0-20.123-2.633-28.989-7.902
	c-8.868-5.267-15.88-12.41-21.033-21.431c-5.154-9.018-7.731-18.794-7.731-29.33c0-7.048,1.269-14.058,3.808-21.033
	c2.539-6.971,6.006-12.997,10.403-18.075c10.61-12.58,24.897-18.872,42.861-18.872c10.004,0,18.567,1.725,25.693,5.173
	c7.122,3.449,13.604,8.964,19.439,16.54h35.698c-3.26-7.198-6.556-13.073-9.89-17.619c-3.336-4.55-7.731-9.17-13.189-13.872
	c-8.034-6.744-17.071-11.916-27.114-15.519c-10.042-3.598-20.483-5.399-31.321-5.399c-11.977,0-23.419,2.352-34.333,7.05
	s-20.312,10.99-28.194,18.872c-7.883,7.884-14.173,17.28-18.872,28.194c-4.7,10.914-7.047,22.358-7.047,34.334
	c0,8.185,1.079,16.162,3.24,23.93c2.16,7.771,5.172,14.932,9.037,21.487c3.867,6.557,8.584,12.582,14.154,18.076
	c5.571,5.496,11.654,10.176,18.247,14.042c6.594,3.864,13.813,6.859,21.658,8.979s15.896,3.184,24.158,3.184
	c17.66,0,33.633-4.585,47.92-13.757c14.285-9.17,24.802-21.601,31.548-37.289h-37.517l0,0
	C273.116,465.316,266.312,470.51,259.757,473.615z"/>
</svg>
